<svg width="50" height="50" viewBox="0 0 50 50" fill="none" xmlns="http://www.w3.org/2000/svg">
<path d="M25.1825 33.2118V25.73M25.1825 8.13853V14.5985M25.1825 14.5985L18.0657 18.7956M25.1825 14.5985L32.1169 18.7956M25.1825 14.5985V20.6204V25.73M18.0657 18.7956V24.0475M18.0657 18.7956L12.4999 21.8886M32.1169 18.7956V24.0475M32.1169 18.7956L37.5001 21.8886M25.1825 25.73L18.0657 30.0137M25.1825 25.73L32.1169 30.0137" stroke="black" stroke-width="3"/>
<path d="M45.1508 36.6341L25 48.2681L4.84921 36.6341V13.3659L25 1.73187L45.1508 13.3659V36.6341Z" stroke="black" stroke-width="3"/>
<path d="M24.9998 43.0001L24.9998 35.0001" stroke="black" stroke-width="3"/>
<path d="M20.9998 39.0001L24.8973 39.0001L28.9998 39.0001" stroke="black" stroke-width="3"/>
</svg>
