<svg width="48" height="48" viewBox="0 0 48 48" fill="none" xmlns="http://www.w3.org/2000/svg">
<g clip-path="url(#clip0_40_1229)">
<path d="M24 45C18.4305 45 13.089 42.7875 9.15076 38.8492C5.21249 34.911 3 29.5695 3 24C3 18.4305 5.21249 13.089 9.15076 9.15076C13.089 5.21249 18.4305 3 24 3C29.5695 3 34.911 5.21249 38.8492 9.15076C42.7875 13.089 45 18.4305 45 24C45 29.5695 42.7875 34.911 38.8492 38.8492C34.911 42.7875 29.5695 45 24 45ZM24 48C30.3652 48 36.4697 45.4714 40.9706 40.9706C45.4714 36.4697 48 30.3652 48 24C48 17.6348 45.4714 11.5303 40.9706 7.02944C36.4697 2.52856 30.3652 0 24 0C17.6348 0 11.5303 2.52856 7.02944 7.02944C2.52856 11.5303 0 17.6348 0 24C0 30.3652 2.52856 36.4697 7.02944 40.9706C11.5303 45.4714 17.6348 48 24 48Z" fill="black"/>
<path d="M15.7648 17.358C15.7607 17.4549 15.7764 17.5516 15.8111 17.6421C15.8457 17.7327 15.8985 17.8152 15.9663 17.8846C16.034 17.9541 16.1152 18.0089 16.2049 18.0457C16.2946 18.0826 16.3908 18.1007 16.4878 18.099H18.9628C19.3768 18.099 19.7068 17.76 19.7608 17.349C20.0308 15.381 21.3808 13.947 23.7868 13.947C25.8448 13.947 27.7288 14.976 27.7288 17.451C27.7288 19.356 26.6068 20.232 24.8338 21.564C22.8148 23.031 21.2158 24.744 21.3298 27.525L21.3388 28.176C21.3419 28.3728 21.4224 28.5605 21.5627 28.6986C21.703 28.8367 21.8919 28.914 22.0888 28.914H24.5218C24.7207 28.914 24.9115 28.835 25.0521 28.6943C25.1928 28.5537 25.2718 28.3629 25.2718 28.164V27.849C25.2718 25.695 26.0908 25.068 28.3018 23.391C30.1288 22.002 32.0338 20.46 32.0338 17.223C32.0338 12.69 28.2058 10.5 24.0148 10.5C20.2138 10.5 16.0498 12.27 15.7648 17.358ZM20.4358 34.647C20.4358 36.246 21.7108 37.428 23.4658 37.428C25.2928 37.428 26.5498 36.246 26.5498 34.647C26.5498 32.991 25.2898 31.827 23.4628 31.827C21.7108 31.827 20.4358 32.991 20.4358 34.647Z" fill="black"/>
</g>
<defs>
<clipPath id="clip0_40_1229">
<rect width="48" height="48" fill="white"/>
</clipPath>
</defs>
</svg>
